<svg width="70" height="70" viewBox="0 0 70 70" fill="none" xmlns="http://www.w3.org/2000/svg">
<path d="M70 35C70 54.33 54.33 70 35 70C15.67 70 0 54.33 0 35C0 15.67 15.67 0 35 0C54.33 0 70 15.67 70 35Z" fill="#D9D9D9"/>
<g clip-path="url(#clip0_1374_1182)">
<rect x="9.09998" y="9.10001" width="52.5" height="52.5" rx="26.25" fill="#D6F5E9"/>
<path d="M-8.84717 8.31949H79.8473V62.6806H-8.84717V8.31949Z" fill="#1E50A0"/>
<path d="M41.2222 25.2802V29.7778H55.7867L79.8472 15.0302V8.31949H68.8977L41.2222 25.2802Z" fill="white"/>
<path d="M79.8472 8.31949H74.3724L41.2222 28.6377V29.7778H46.2034L79.8472 9.15779V8.31949Z" fill="#D22F27"/>
<path d="M68.8991 62.6806H79.8472V55.9684L55.7881 41.2223H41.2222V45.7185L68.8991 62.6806Z" fill="white"/>
<path d="M79.8472 62.6806V59.3231L50.3134 41.2223H43.4653L78.4767 62.6806H79.8472Z" fill="#D22F27"/>
<path d="M29.7778 45.7199V41.2223H15.2133L-8.84717 55.9699V62.6806H2.1023L29.7778 45.7199Z" fill="white"/>
<path d="M-8.84717 62.6806H-3.37243L29.7778 42.3624V41.2223H24.7966L-8.84717 61.8423V62.6806Z" fill="#D22F27"/>
<path d="M2.10087 8.31949H-8.84717V15.0317L15.2119 29.7778H29.7778V25.2816L2.10087 8.31949Z" fill="white"/>
<path d="M-8.84717 8.31949V11.677L20.6881 29.7778H27.5347L-7.4767 8.31949H-8.84717Z" fill="#D22F27"/>
<path d="M-8.84717 28.3473H79.8473V42.6528H-8.84717V28.3473Z" fill="white"/>
<path d="M28.3472 8.31949H42.6527V62.6806H28.3472V8.31949Z" fill="white"/>
<path d="M-8.84717 31.2084H79.8473V39.7917H-8.84717V31.2084Z" fill="#D22F27"/>
<path d="M31.2084 8.31949H39.7917V62.6806H31.2084V8.31949Z" fill="#D22F27"/>
<path d="M-8.84717 8.31949H79.8473V62.6806H-8.84717V8.31949Z" stroke="black" stroke-width="2" stroke-linecap="round" stroke-linejoin="round"/>
</g>
<defs>
<clipPath id="clip0_1374_1182">
<rect x="9.09998" y="9.10001" width="52.5" height="52.5" rx="26.25" fill="white"/>
</clipPath>
</defs>
</svg>
