<svg width="70" height="70" viewBox="0 0 70 70" fill="none" xmlns="http://www.w3.org/2000/svg">
<path d="M70 35C70 54.33 54.33 70 35 70C15.67 70 0 54.33 0 35C0 15.67 15.67 0 35 0C54.33 0 70 15.67 70 35Z" fill="#D9D9D9"/>
<g clip-path="url(#clip0_1374_1149)">
<rect x="9.09998" y="9.10001" width="52.5" height="52.5" rx="26.25" fill="#D6F5E9"/>
<path d="M51 9.6C46.3 6.7 40.9 5 35 5V9.6H51Z" fill="#ED4C5C"/>
<path d="M35 14.2H56.6C54.9 12.5 53 10.9 51 9.60001H35V14.2Z" fill="white"/>
<path d="M35 18.8H60.3C59.2 17.1 58 15.6 56.7 14.2H35V18.8Z" fill="#ED4C5C"/>
<path d="M35 23.4H62.7C62 21.8 61.2 20.2 60.3 18.8H35V23.4Z" fill="white"/>
<path d="M35 28H64.2C63.8 26.4 63.3 24.9 62.7 23.4H35V28Z" fill="#ED4C5C"/>
<path d="M35 32.7H64.9C64.8 31.1 64.5 29.6 64.2 28.1H35V32.7Z" fill="white"/>
<path d="M64.9 32.7H35V35H5C5 35.8 5 36.5 5.1 37.3H64.9C65 36.5 65 35.8 65 35C65 34.2 65 33.4 64.9 32.7Z" fill="#ED4C5C"/>
<path d="M5.79998 41.9H64.2C64.6 40.4 64.8 38.9 64.9 37.3H5.09998C5.19998 38.8 5.39998 40.4 5.79998 41.9Z" fill="white"/>
<path d="M7.30005 46.5H62.7001C63.3001 45 63.8001 43.5 64.2001 41.9H5.80005C6.20005 43.5 6.70005 45 7.30005 46.5Z" fill="#ED4C5C"/>
<path d="M9.70005 51.1H60.3C61.2 49.6 62.0001 48.1 62.7001 46.5H7.30005C8.00005 48.1 8.80005 49.6 9.70005 51.1Z" fill="white"/>
<path d="M13.3 55.7H56.7C58 54.3 59.2999 52.7 60.2999 51.1H9.69995C10.7 52.8 12 54.3 13.3 55.7Z" fill="#ED4C5C"/>
<path d="M18.9 60.3H51.1C53.2 59 55.0001 57.4 56.7001 55.7H13.3C15 57.5 16.9 59 18.9 60.3Z" fill="white"/>
<path d="M35 65C40.9 65 46.4 63.3 51.1 60.3H18.9C23.6 63.3 29.1 65 35 65Z" fill="#ED4C5C"/>
<path d="M19 9.6C16.9 10.9 15 12.5 13.3 14.2C11.9 15.6 10.7 17.2 9.7 18.8C8.8 20.3 7.9 21.8 7.3 23.4C6.7 24.9 6.2 26.4 5.8 28C5.4 29.5 5.2 31 5.1 32.6C5 33.4 5 34.2 5 35H35V5C29.1 5 23.7 6.7 19 9.6Z" fill="#428BC1"/>
<path d="M28 6L28.5 7.5H30L28.8 8.5L29.2 10L28 9.1L26.8 10L27.2 8.5L26 7.5H27.5L28 6ZM32 12L32.5 13.5H34L32.8 14.5L33.2 16L32 15.1L30.8 16L31.2 14.5L30 13.5H31.5L32 12ZM24 12L24.5 13.5H26L24.8 14.5L25.2 16L24 15.1L22.8 16L23.2 14.5L22 13.5H23.5L24 12ZM28 18L28.5 19.5H30L28.8 20.5L29.2 22L28 21.1L26.8 22L27.2 20.5L26 19.5H27.5L28 18ZM20 18L20.5 19.5H22L20.8 20.5L21.2 22L20 21.1L18.8 22L19.2 20.5L18 19.5H19.5L20 18ZM12 18L12.5 19.5H14L12.8 20.5L13.2 22L12 21.1L10.8 22L11.2 20.5L10 19.5H11.5L12 18ZM32 24L32.5 25.5H34L32.8 26.5L33.2 28L32 27.1L30.8 28L31.2 26.5L30 25.5H31.5L32 24ZM24 24L24.5 25.5H26L24.8 26.5L25.2 28L24 27.1L22.8 28L23.2 26.5L22 25.5H23.5L24 24ZM16 24L16.5 25.5H18L16.8 26.5L17.2 28L16 27.1L14.8 28L15.2 26.5L14 25.5H15.5L16 24ZM28 30L28.5 31.5H30L28.8 32.5L29.2 34L28 33.1L26.8 34L27.2 32.5L26 31.5H27.5L28 30ZM20 30L20.5 31.5H22L20.8 32.5L21.2 34L20 33.1L18.8 34L19.2 32.5L18 31.5H19.5L20 30ZM12 30L12.5 31.5H14L12.8 32.5L13.2 34L12 33.1L10.8 34L11.2 32.5L10 31.5H11.5L12 30ZM14.8 16L16 15.1L17.2 16L16.7 14.5L17.9 13.5H16.4L16 12L15.5 13.5H14.1L15.3 14.4L14.8 16ZM6.80002 28L8.00002 27.1L9.20002 28L8.70002 26.5L9.90002 25.5H8.50002L8.00002 24L7.50002 25.5H6.50002C6.50002 25.6 6.40002 25.7 6.40002 25.8L7.20002 26.4L6.80002 28Z" fill="white"/>
</g>
<defs>
<clipPath id="clip0_1374_1149">
<rect x="9.09998" y="9.10001" width="52.5" height="52.5" rx="26.25" fill="white"/>
</clipPath>
</defs>
</svg>
